<mxfile host="app.diagrams.net" modified="2021-01-22T14:47:51.447Z" agent="5.0 (Windows)" etag="z8twcEBKz1tDqOPkUIoq" version="14.2.6" type="github">
  <diagram id="UtawWkkkuRNCDnRygqRu" name="Page-1">
    <mxGraphModel dx="1718" dy="937" grid="1" gridSize="10" guides="1" tooltips="1" connect="1" arrows="1" fold="1" page="1" pageScale="1" pageWidth="827" pageHeight="1169" math="0" shadow="0">
      <root>
        <mxCell id="0" />
        <mxCell id="1" parent="0" />
        <mxCell id="fi5G1cxpYTyHCKTgN4Be-5" value="SI AGRICA" style="swimlane;" parent="1" vertex="1">
          <mxGeometry x="10" width="660" height="680" as="geometry" />
        </mxCell>
        <mxCell id="fi5G1cxpYTyHCKTgN4Be-16" value="RECETTE" style="text;html=1;strokeColor=none;fillColor=none;align=center;verticalAlign=middle;whiteSpace=wrap;rounded=0;rotation=-90;" parent="fi5G1cxpYTyHCKTgN4Be-5" vertex="1">
          <mxGeometry x="-2" y="490" width="40" height="20" as="geometry" />
        </mxCell>
        <mxCell id="fi5G1cxpYTyHCKTgN4Be-17" value="QUALIF" style="text;html=1;strokeColor=none;fillColor=none;align=center;verticalAlign=middle;whiteSpace=wrap;rounded=0;rotation=-90;" parent="fi5G1cxpYTyHCKTgN4Be-5" vertex="1">
          <mxGeometry y="290" width="40" height="20" as="geometry" />
        </mxCell>
        <mxCell id="fi5G1cxpYTyHCKTgN4Be-38" value="INTEG" style="text;html=1;strokeColor=none;fillColor=none;align=center;verticalAlign=middle;whiteSpace=wrap;rounded=0;rotation=-90;" parent="fi5G1cxpYTyHCKTgN4Be-5" vertex="1">
          <mxGeometry y="90" width="40" height="20" as="geometry" />
        </mxCell>
        <mxCell id="fi5G1cxpYTyHCKTgN4Be-39" value="DATAPF" style="rounded=1;whiteSpace=wrap;html=1;fontSize=10;fillColor=#e1d5e7;strokeColor=#9673a6;" parent="fi5G1cxpYTyHCKTgN4Be-5" vertex="1">
          <mxGeometry x="451" y="329" width="120" height="30" as="geometry" />
        </mxCell>
        <mxCell id="fi5G1cxpYTyHCKTgN4Be-41" value="PFI-DEV" style="rounded=0;whiteSpace=wrap;html=1;fontSize=10;fillColor=#dae8fc;strokeColor=#6c8ebf;verticalAlign=top;" parent="fi5G1cxpYTyHCKTgN4Be-5" vertex="1">
          <mxGeometry x="370" y="210" width="150" height="50" as="geometry" />
        </mxCell>
        <mxCell id="fi5G1cxpYTyHCKTgN4Be-43" value="APIM" style="rounded=0;whiteSpace=wrap;html=1;fontSize=10;fillColor=#dae8fc;strokeColor=#6c8ebf;" parent="fi5G1cxpYTyHCKTgN4Be-5" vertex="1">
          <mxGeometry x="235" y="295" width="85" height="20" as="geometry" />
        </mxCell>
        <mxCell id="fi5G1cxpYTyHCKTgN4Be-44" value="APIM" style="rounded=0;whiteSpace=wrap;html=1;fontSize=10;fillColor=#dae8fc;strokeColor=#6c8ebf;" parent="fi5G1cxpYTyHCKTgN4Be-5" vertex="1">
          <mxGeometry x="235" y="520" width="85" height="20" as="geometry" />
        </mxCell>
        <mxCell id="fi5G1cxpYTyHCKTgN4Be-46" value="APIM" style="rounded=0;whiteSpace=wrap;html=1;fontSize=10;fillColor=#dae8fc;strokeColor=#6c8ebf;" parent="fi5G1cxpYTyHCKTgN4Be-5" vertex="1">
          <mxGeometry x="235" y="102" width="85" height="20" as="geometry" />
        </mxCell>
        <mxCell id="fi5G1cxpYTyHCKTgN4Be-47" value="NEC" style="rounded=0;whiteSpace=wrap;html=1;fontSize=10;" parent="fi5G1cxpYTyHCKTgN4Be-5" vertex="1">
          <mxGeometry x="60" y="77" width="85" height="20" as="geometry" />
        </mxCell>
        <mxCell id="fi5G1cxpYTyHCKTgN4Be-48" value="ESPACECO" style="rounded=0;whiteSpace=wrap;html=1;fontSize=10;" parent="fi5G1cxpYTyHCKTgN4Be-5" vertex="1">
          <mxGeometry x="60" y="117" width="85" height="20" as="geometry" />
        </mxCell>
        <mxCell id="fi5G1cxpYTyHCKTgN4Be-50" value="NEC" style="rounded=0;whiteSpace=wrap;html=1;fontSize=10;" parent="fi5G1cxpYTyHCKTgN4Be-5" vertex="1">
          <mxGeometry x="60" y="261" width="85" height="20" as="geometry" />
        </mxCell>
        <mxCell id="fi5G1cxpYTyHCKTgN4Be-51" value="ESPACECO" style="rounded=0;whiteSpace=wrap;html=1;fontSize=10;" parent="fi5G1cxpYTyHCKTgN4Be-5" vertex="1">
          <mxGeometry x="60" y="301" width="85" height="20" as="geometry" />
        </mxCell>
        <mxCell id="fi5G1cxpYTyHCKTgN4Be-53" value="NEC" style="rounded=0;whiteSpace=wrap;html=1;fontSize=10;" parent="fi5G1cxpYTyHCKTgN4Be-5" vertex="1">
          <mxGeometry x="60" y="475" width="85" height="20" as="geometry" />
        </mxCell>
        <mxCell id="fi5G1cxpYTyHCKTgN4Be-54" value="ESPACECO" style="rounded=0;whiteSpace=wrap;html=1;fontSize=10;" parent="fi5G1cxpYTyHCKTgN4Be-5" vertex="1">
          <mxGeometry x="60" y="515" width="85" height="20" as="geometry" />
        </mxCell>
        <mxCell id="fi5G1cxpYTyHCKTgN4Be-56" value="GED" style="rounded=1;whiteSpace=wrap;html=1;fontSize=10;fillColor=#ffe6cc;strokeColor=#d79b00;" parent="fi5G1cxpYTyHCKTgN4Be-5" vertex="1">
          <mxGeometry x="560" y="210" width="50" height="30" as="geometry" />
        </mxCell>
        <mxCell id="fi5G1cxpYTyHCKTgN4Be-60" value="DATAPF" style="rounded=1;whiteSpace=wrap;html=1;fontSize=10;fillColor=#e1d5e7;strokeColor=#9673a6;" parent="fi5G1cxpYTyHCKTgN4Be-5" vertex="1">
          <mxGeometry x="451" y="540" width="120" height="30" as="geometry" />
        </mxCell>
        <mxCell id="fi5G1cxpYTyHCKTgN4Be-95" value="JDQ" style="rounded=0;whiteSpace=wrap;html=1;fontSize=10;fillColor=#d5e8d4;strokeColor=#82b366;" parent="fi5G1cxpYTyHCKTgN4Be-5" vertex="1">
          <mxGeometry x="541" y="334" width="20" height="20" as="geometry" />
        </mxCell>
        <mxCell id="fi5G1cxpYTyHCKTgN4Be-96" value="JDR" style="rounded=0;whiteSpace=wrap;html=1;fontSize=10;fillColor=#f8cecc;strokeColor=#b85450;" parent="fi5G1cxpYTyHCKTgN4Be-5" vertex="1">
          <mxGeometry x="541" y="545" width="20" height="20" as="geometry" />
        </mxCell>
        <mxCell id="fi5G1cxpYTyHCKTgN4Be-97" value="JDQ" style="rounded=0;whiteSpace=wrap;html=1;fontSize=10;fillColor=#d5e8d4;strokeColor=#82b366;" parent="fi5G1cxpYTyHCKTgN4Be-5" vertex="1">
          <mxGeometry x="50" y="269" width="20" height="20" as="geometry" />
        </mxCell>
        <mxCell id="fi5G1cxpYTyHCKTgN4Be-98" value="JDQ" style="rounded=0;whiteSpace=wrap;html=1;fontSize=10;fillColor=#d5e8d4;strokeColor=#82b366;" parent="fi5G1cxpYTyHCKTgN4Be-5" vertex="1">
          <mxGeometry x="50" y="309" width="20" height="20" as="geometry" />
        </mxCell>
        <mxCell id="fi5G1cxpYTyHCKTgN4Be-99" value="JDR" style="rounded=0;whiteSpace=wrap;html=1;fontSize=10;fillColor=#f8cecc;strokeColor=#b85450;" parent="fi5G1cxpYTyHCKTgN4Be-5" vertex="1">
          <mxGeometry x="50" y="485" width="20" height="20" as="geometry" />
        </mxCell>
        <mxCell id="fi5G1cxpYTyHCKTgN4Be-100" value="JDR" style="rounded=0;whiteSpace=wrap;html=1;fontSize=10;fillColor=#f8cecc;strokeColor=#b85450;" parent="fi5G1cxpYTyHCKTgN4Be-5" vertex="1">
          <mxGeometry x="50" y="525" width="20" height="20" as="geometry" />
        </mxCell>
        <mxCell id="BkkZDHYC6QuZQfSpvtJa-2" value="Consommateur" style="text;html=1;strokeColor=none;fillColor=none;align=center;verticalAlign=middle;whiteSpace=wrap;rounded=0;" parent="fi5G1cxpYTyHCKTgN4Be-5" vertex="1">
          <mxGeometry x="77.5" y="30" width="50" height="20" as="geometry" />
        </mxCell>
        <mxCell id="BkkZDHYC6QuZQfSpvtJa-3" value="Middleware/Routage" style="text;html=1;strokeColor=none;fillColor=none;align=center;verticalAlign=middle;whiteSpace=wrap;rounded=0;" parent="fi5G1cxpYTyHCKTgN4Be-5" vertex="1">
          <mxGeometry x="250" y="30" width="50" height="20" as="geometry" />
        </mxCell>
        <mxCell id="BkkZDHYC6QuZQfSpvtJa-4" value="Fournisseur" style="text;html=1;strokeColor=none;fillColor=none;align=center;verticalAlign=middle;whiteSpace=wrap;rounded=0;" parent="fi5G1cxpYTyHCKTgN4Be-5" vertex="1">
          <mxGeometry x="485" y="30" width="50" height="20" as="geometry" />
        </mxCell>
        <mxCell id="C6QLfUmNTLj8EmhHEYac-1" value="TALEND" style="rounded=1;whiteSpace=wrap;html=1;fontSize=10;fillColor=#fff2cc;strokeColor=#d6b656;" parent="fi5G1cxpYTyHCKTgN4Be-5" vertex="1">
          <mxGeometry x="520" y="370" width="80" height="19" as="geometry" />
        </mxCell>
        <mxCell id="C6QLfUmNTLj8EmhHEYac-2" value="TALEND" style="rounded=1;whiteSpace=wrap;html=1;fontSize=10;fillColor=#fff2cc;strokeColor=#d6b656;" parent="fi5G1cxpYTyHCKTgN4Be-5" vertex="1">
          <mxGeometry x="520" y="584" width="80" height="20" as="geometry" />
        </mxCell>
        <mxCell id="C6QLfUmNTLj8EmhHEYac-15" value="EMS" style="rounded=1;whiteSpace=wrap;html=1;fontSize=10;" parent="fi5G1cxpYTyHCKTgN4Be-5" vertex="1">
          <mxGeometry x="380" y="232" width="28" height="18" as="geometry" />
        </mxCell>
        <mxCell id="iJ6u3aECMBL3vNw7YUmj-23" value="" style="endArrow=classic;html=1;exitX=1;exitY=0.75;exitDx=0;exitDy=0;edgeStyle=orthogonalEdgeStyle;" edge="1" parent="fi5G1cxpYTyHCKTgN4Be-5" source="fi5G1cxpYTyHCKTgN4Be-50">
          <mxGeometry width="50" height="50" relative="1" as="geometry">
            <mxPoint x="197" y="371" as="sourcePoint" />
            <mxPoint x="235" y="310" as="targetPoint" />
            <Array as="points">
              <mxPoint x="160" y="276" />
              <mxPoint x="160" y="310" />
            </Array>
          </mxGeometry>
        </mxCell>
        <mxCell id="iJ6u3aECMBL3vNw7YUmj-24" value="" style="endArrow=classic;html=1;exitX=1;exitY=0.75;exitDx=0;exitDy=0;edgeStyle=orthogonalEdgeStyle;" edge="1" parent="fi5G1cxpYTyHCKTgN4Be-5" source="fi5G1cxpYTyHCKTgN4Be-51">
          <mxGeometry width="50" height="50" relative="1" as="geometry">
            <mxPoint x="130" y="380" as="sourcePoint" />
            <mxPoint x="235" y="311" as="targetPoint" />
            <Array as="points">
              <mxPoint x="160" y="316" />
              <mxPoint x="160" y="311" />
            </Array>
          </mxGeometry>
        </mxCell>
        <mxCell id="iJ6u3aECMBL3vNw7YUmj-25" value="" style="endArrow=classic;html=1;exitX=1;exitY=0.5;exitDx=0;exitDy=0;entryX=0;entryY=0.5;entryDx=0;entryDy=0;edgeStyle=orthogonalEdgeStyle;" edge="1" parent="fi5G1cxpYTyHCKTgN4Be-5" source="fi5G1cxpYTyHCKTgN4Be-43" target="fi5G1cxpYTyHCKTgN4Be-39">
          <mxGeometry width="50" height="50" relative="1" as="geometry">
            <mxPoint x="350" y="344" as="sourcePoint" />
            <mxPoint x="445" y="344" as="targetPoint" />
          </mxGeometry>
        </mxCell>
        <mxCell id="iJ6u3aECMBL3vNw7YUmj-29" value="" style="endArrow=classic;html=1;entryX=1;entryY=0.5;entryDx=0;entryDy=0;edgeStyle=orthogonalEdgeStyle;" edge="1" parent="fi5G1cxpYTyHCKTgN4Be-5" target="C6QLfUmNTLj8EmhHEYac-2">
          <mxGeometry width="50" height="50" relative="1" as="geometry">
            <mxPoint x="690" y="510" as="sourcePoint" />
            <mxPoint x="610" y="460" as="targetPoint" />
            <Array as="points">
              <mxPoint x="670" y="510" />
              <mxPoint x="670" y="594" />
            </Array>
          </mxGeometry>
        </mxCell>
        <mxCell id="iJ6u3aECMBL3vNw7YUmj-30" value="" style="endArrow=classic;html=1;entryX=0.5;entryY=1;entryDx=0;entryDy=0;exitX=0;exitY=0.75;exitDx=0;exitDy=0;edgeStyle=orthogonalEdgeStyle;" edge="1" parent="fi5G1cxpYTyHCKTgN4Be-5" source="C6QLfUmNTLj8EmhHEYac-1" target="fi5G1cxpYTyHCKTgN4Be-39">
          <mxGeometry width="50" height="50" relative="1" as="geometry">
            <mxPoint x="470" y="470" as="sourcePoint" />
            <mxPoint x="520" y="420" as="targetPoint" />
          </mxGeometry>
        </mxCell>
        <mxCell id="iJ6u3aECMBL3vNw7YUmj-31" value="" style="endArrow=classic;html=1;exitX=0;exitY=0.5;exitDx=0;exitDy=0;entryX=0.5;entryY=1;entryDx=0;entryDy=0;edgeStyle=orthogonalEdgeStyle;" edge="1" parent="fi5G1cxpYTyHCKTgN4Be-5" source="C6QLfUmNTLj8EmhHEYac-2" target="fi5G1cxpYTyHCKTgN4Be-60">
          <mxGeometry width="50" height="50" relative="1" as="geometry">
            <mxPoint x="380" y="660" as="sourcePoint" />
            <mxPoint x="430" y="610" as="targetPoint" />
          </mxGeometry>
        </mxCell>
        <mxCell id="iJ6u3aECMBL3vNw7YUmj-32" value="PFI-DEV" style="rounded=0;whiteSpace=wrap;html=1;fontSize=10;fillColor=#dae8fc;strokeColor=#6c8ebf;verticalAlign=top;" vertex="1" parent="fi5G1cxpYTyHCKTgN4Be-5">
          <mxGeometry x="370" y="410" width="150" height="50" as="geometry" />
        </mxCell>
        <mxCell id="iJ6u3aECMBL3vNw7YUmj-34" value="EMS" style="rounded=1;whiteSpace=wrap;html=1;fontSize=10;" vertex="1" parent="fi5G1cxpYTyHCKTgN4Be-5">
          <mxGeometry x="380" y="432" width="28" height="18" as="geometry" />
        </mxCell>
        <mxCell id="iJ6u3aECMBL3vNw7YUmj-39" value="" style="endArrow=classic;html=1;entryX=0;entryY=0.5;entryDx=0;entryDy=0;exitX=1;exitY=0.5;exitDx=0;exitDy=0;edgeStyle=orthogonalEdgeStyle;" edge="1" parent="fi5G1cxpYTyHCKTgN4Be-5" source="fi5G1cxpYTyHCKTgN4Be-53" target="fi5G1cxpYTyHCKTgN4Be-44">
          <mxGeometry width="50" height="50" relative="1" as="geometry">
            <mxPoint x="200" y="501" as="sourcePoint" />
            <mxPoint x="290" y="495" as="targetPoint" />
          </mxGeometry>
        </mxCell>
        <mxCell id="iJ6u3aECMBL3vNw7YUmj-40" value="" style="endArrow=classic;html=1;entryX=0;entryY=0.5;entryDx=0;entryDy=0;exitX=1;exitY=0.5;exitDx=0;exitDy=0;edgeStyle=orthogonalEdgeStyle;" edge="1" parent="fi5G1cxpYTyHCKTgN4Be-5" source="fi5G1cxpYTyHCKTgN4Be-54" target="fi5G1cxpYTyHCKTgN4Be-44">
          <mxGeometry width="50" height="50" relative="1" as="geometry">
            <mxPoint x="145" y="485" as="sourcePoint" />
            <mxPoint x="232.5" y="560" as="targetPoint" />
            <Array as="points">
              <mxPoint x="190" y="525" />
              <mxPoint x="190" y="530" />
            </Array>
          </mxGeometry>
        </mxCell>
        <mxCell id="iJ6u3aECMBL3vNw7YUmj-43" value="" style="endArrow=classic;html=1;exitX=1;exitY=0.5;exitDx=0;exitDy=0;entryX=0;entryY=0.5;entryDx=0;entryDy=0;edgeStyle=orthogonalEdgeStyle;" edge="1" parent="fi5G1cxpYTyHCKTgN4Be-5" source="fi5G1cxpYTyHCKTgN4Be-44" target="fi5G1cxpYTyHCKTgN4Be-60">
          <mxGeometry width="50" height="50" relative="1" as="geometry">
            <mxPoint x="300" y="640" as="sourcePoint" />
            <mxPoint x="441" y="556" as="targetPoint" />
          </mxGeometry>
        </mxCell>
        <mxCell id="iJ6u3aECMBL3vNw7YUmj-50" value="" style="endArrow=classic;html=1;exitX=1;exitY=0.5;exitDx=0;exitDy=0;entryX=0;entryY=0.5;entryDx=0;entryDy=0;" edge="1" parent="fi5G1cxpYTyHCKTgN4Be-5" source="fi5G1cxpYTyHCKTgN4Be-46" target="iJ6u3aECMBL3vNw7YUmj-60">
          <mxGeometry width="50" height="50" relative="1" as="geometry">
            <mxPoint x="360" y="180" as="sourcePoint" />
            <mxPoint x="462" y="112" as="targetPoint" />
          </mxGeometry>
        </mxCell>
        <mxCell id="iJ6u3aECMBL3vNw7YUmj-51" value="" style="endArrow=classic;html=1;exitX=1;exitY=0.5;exitDx=0;exitDy=0;entryX=0;entryY=0.5;entryDx=0;entryDy=0;edgeStyle=orthogonalEdgeStyle;" edge="1" parent="fi5G1cxpYTyHCKTgN4Be-5" source="fi5G1cxpYTyHCKTgN4Be-47" target="fi5G1cxpYTyHCKTgN4Be-46">
          <mxGeometry width="50" height="50" relative="1" as="geometry">
            <mxPoint x="190" y="200" as="sourcePoint" />
            <mxPoint x="240" y="150" as="targetPoint" />
            <Array as="points">
              <mxPoint x="200" y="87" />
              <mxPoint x="200" y="112" />
            </Array>
          </mxGeometry>
        </mxCell>
        <mxCell id="iJ6u3aECMBL3vNw7YUmj-52" value="" style="endArrow=classic;html=1;exitX=1;exitY=0.5;exitDx=0;exitDy=0;entryX=0;entryY=0.5;entryDx=0;entryDy=0;edgeStyle=orthogonalEdgeStyle;" edge="1" parent="fi5G1cxpYTyHCKTgN4Be-5" source="fi5G1cxpYTyHCKTgN4Be-48" target="fi5G1cxpYTyHCKTgN4Be-46">
          <mxGeometry width="50" height="50" relative="1" as="geometry">
            <mxPoint x="190" y="190" as="sourcePoint" />
            <mxPoint x="240" y="140" as="targetPoint" />
            <Array as="points">
              <mxPoint x="200" y="127" />
              <mxPoint x="200" y="112" />
            </Array>
          </mxGeometry>
        </mxCell>
        <mxCell id="iJ6u3aECMBL3vNw7YUmj-59" value="" style="endArrow=classic;html=1;strokeColor=#000000;strokeWidth=1;entryX=0;entryY=0.5;entryDx=0;entryDy=0;" edge="1" parent="fi5G1cxpYTyHCKTgN4Be-5" target="iJ6u3aECMBL3vNw7YUmj-53">
          <mxGeometry width="50" height="50" relative="1" as="geometry">
            <mxPoint x="320" y="304" as="sourcePoint" />
            <mxPoint x="540" y="280" as="targetPoint" />
          </mxGeometry>
        </mxCell>
        <mxCell id="iJ6u3aECMBL3vNw7YUmj-60" value="&lt;div&gt;API OnCustomer&lt;/div&gt;&lt;div&gt;Bouchon&lt;/div&gt;" style="rounded=1;whiteSpace=wrap;html=1;fontSize=10;fillColor=#ffe6cc;strokeColor=#d79b00;" vertex="1" parent="fi5G1cxpYTyHCKTgN4Be-5">
          <mxGeometry x="505" y="97" width="110" height="30" as="geometry" />
        </mxCell>
        <mxCell id="iJ6u3aECMBL3vNw7YUmj-61" value="" style="endArrow=classic;html=1;strokeColor=#000000;strokeWidth=1;exitX=1;exitY=0.75;exitDx=0;exitDy=0;entryX=0;entryY=0.25;entryDx=0;entryDy=0;edgeStyle=orthogonalEdgeStyle;entryPerimeter=0;" edge="1" parent="fi5G1cxpYTyHCKTgN4Be-5" source="fi5G1cxpYTyHCKTgN4Be-47" target="fi5G1cxpYTyHCKTgN4Be-43">
          <mxGeometry width="50" height="50" relative="1" as="geometry">
            <mxPoint x="220" y="210" as="sourcePoint" />
            <mxPoint x="270" y="160" as="targetPoint" />
            <Array as="points">
              <mxPoint x="180" y="92" />
              <mxPoint x="180" y="300" />
            </Array>
          </mxGeometry>
        </mxCell>
        <mxCell id="iJ6u3aECMBL3vNw7YUmj-62" value="" style="endArrow=classic;html=1;strokeColor=#000000;strokeWidth=1;entryX=0;entryY=0.25;entryDx=0;entryDy=0;edgeStyle=orthogonalEdgeStyle;" edge="1" parent="fi5G1cxpYTyHCKTgN4Be-5" target="fi5G1cxpYTyHCKTgN4Be-43">
          <mxGeometry width="50" height="50" relative="1" as="geometry">
            <mxPoint x="145" y="130" as="sourcePoint" />
            <mxPoint x="270" y="140" as="targetPoint" />
            <Array as="points">
              <mxPoint x="170" y="130" />
              <mxPoint x="170" y="300" />
            </Array>
          </mxGeometry>
        </mxCell>
        <mxCell id="iJ6u3aECMBL3vNw7YUmj-63" value="" style="endArrow=classic;html=1;strokeColor=#000000;strokeWidth=1;entryX=0;entryY=0.5;entryDx=0;entryDy=0;" edge="1" parent="fi5G1cxpYTyHCKTgN4Be-5" target="fi5G1cxpYTyHCKTgN4Be-56">
          <mxGeometry width="50" height="50" relative="1" as="geometry">
            <mxPoint x="520" y="225" as="sourcePoint" />
            <mxPoint x="590" y="270" as="targetPoint" />
          </mxGeometry>
        </mxCell>
        <mxCell id="iJ6u3aECMBL3vNw7YUmj-65" value="Jasper" style="rounded=1;whiteSpace=wrap;html=1;fontSize=10;fillColor=#ffe6cc;strokeColor=#d79b00;" vertex="1" parent="fi5G1cxpYTyHCKTgN4Be-5">
          <mxGeometry x="575" y="230" width="50" height="30" as="geometry" />
        </mxCell>
        <mxCell id="iJ6u3aECMBL3vNw7YUmj-70" value="GED" style="rounded=1;whiteSpace=wrap;html=1;fontSize=10;fillColor=#ffe6cc;strokeColor=#d79b00;" vertex="1" parent="fi5G1cxpYTyHCKTgN4Be-5">
          <mxGeometry x="557.5" y="410" width="50" height="30" as="geometry" />
        </mxCell>
        <mxCell id="iJ6u3aECMBL3vNw7YUmj-71" value="Jasper" style="rounded=1;whiteSpace=wrap;html=1;fontSize=10;fillColor=#ffe6cc;strokeColor=#d79b00;" vertex="1" parent="fi5G1cxpYTyHCKTgN4Be-5">
          <mxGeometry x="572.5" y="430" width="50" height="30" as="geometry" />
        </mxCell>
        <mxCell id="iJ6u3aECMBL3vNw7YUmj-72" value="..." style="rounded=1;whiteSpace=wrap;html=1;fontSize=10;fillColor=#ffe6cc;strokeColor=#d79b00;" vertex="1" parent="fi5G1cxpYTyHCKTgN4Be-5">
          <mxGeometry x="592.5" y="450" width="50" height="30" as="geometry" />
        </mxCell>
        <mxCell id="iJ6u3aECMBL3vNw7YUmj-73" value="" style="endArrow=classic;html=1;strokeColor=#000000;strokeWidth=1;exitX=1;exitY=0.25;exitDx=0;exitDy=0;entryX=0;entryY=0.5;entryDx=0;entryDy=0;" edge="1" parent="fi5G1cxpYTyHCKTgN4Be-5" source="iJ6u3aECMBL3vNw7YUmj-32" target="iJ6u3aECMBL3vNw7YUmj-70">
          <mxGeometry width="50" height="50" relative="1" as="geometry">
            <mxPoint x="520" y="525" as="sourcePoint" />
            <mxPoint x="570" y="475" as="targetPoint" />
          </mxGeometry>
        </mxCell>
        <mxCell id="iJ6u3aECMBL3vNw7YUmj-76" value="" style="endArrow=classic;html=1;strokeColor=#000000;strokeWidth=1;entryX=0;entryY=0.5;entryDx=0;entryDy=0;exitX=1;exitY=0.25;exitDx=0;exitDy=0;edgeStyle=orthogonalEdgeStyle;elbow=vertical;" edge="1" parent="fi5G1cxpYTyHCKTgN4Be-5" source="fi5G1cxpYTyHCKTgN4Be-50" target="fi5G1cxpYTyHCKTgN4Be-41">
          <mxGeometry width="50" height="50" relative="1" as="geometry">
            <mxPoint x="270" y="260" as="sourcePoint" />
            <mxPoint x="320" y="210" as="targetPoint" />
            <Array as="points">
              <mxPoint x="200" y="266" />
              <mxPoint x="200" y="235" />
            </Array>
          </mxGeometry>
        </mxCell>
        <mxCell id="iJ6u3aECMBL3vNw7YUmj-77" value="" style="endArrow=classic;html=1;strokeColor=#000000;strokeWidth=1;exitX=1;exitY=0.25;exitDx=0;exitDy=0;entryX=0;entryY=0.5;entryDx=0;entryDy=0;edgeStyle=orthogonalEdgeStyle;" edge="1" parent="fi5G1cxpYTyHCKTgN4Be-5" source="fi5G1cxpYTyHCKTgN4Be-51" target="fi5G1cxpYTyHCKTgN4Be-41">
          <mxGeometry width="50" height="50" relative="1" as="geometry">
            <mxPoint x="290" y="300" as="sourcePoint" />
            <mxPoint x="340" y="250" as="targetPoint" />
            <Array as="points">
              <mxPoint x="200" y="306" />
              <mxPoint x="200" y="235" />
            </Array>
          </mxGeometry>
        </mxCell>
        <mxCell id="fi5G1cxpYTyHCKTgN4Be-6" value="SI Partenaire" style="swimlane;" parent="1" vertex="1">
          <mxGeometry x="670" width="240" height="680" as="geometry" />
        </mxCell>
        <mxCell id="fi5G1cxpYTyHCKTgN4Be-8" value="PICRIS RECETTE" style="swimlane;fillColor=#bac8d3;strokeColor=#23445d;" parent="fi5G1cxpYTyHCKTgN4Be-6" vertex="1">
          <mxGeometry x="31.5" y="460" width="158.5" height="200" as="geometry">
            <mxRectangle x="42" y="80" width="120" height="23" as="alternateBounds" />
          </mxGeometry>
        </mxCell>
        <mxCell id="fi5G1cxpYTyHCKTgN4Be-63" value="CCPMA" style="rounded=0;whiteSpace=wrap;html=1;fontSize=10;verticalAlign=top;" parent="fi5G1cxpYTyHCKTgN4Be-8" vertex="1">
          <mxGeometry x="10.5" y="40" width="65" height="44" as="geometry" />
        </mxCell>
        <mxCell id="fi5G1cxpYTyHCKTgN4Be-65" value="&lt;div&gt;CCPMA DSN&lt;/div&gt;" style="rounded=0;whiteSpace=wrap;html=1;fontSize=10;verticalAlign=top;" parent="fi5G1cxpYTyHCKTgN4Be-8" vertex="1">
          <mxGeometry x="83" y="40" width="63" height="44" as="geometry" />
        </mxCell>
        <mxCell id="fi5G1cxpYTyHCKTgN4Be-66" value="CPCEA" style="rounded=0;whiteSpace=wrap;html=1;fontSize=10;verticalAlign=top;" parent="fi5G1cxpYTyHCKTgN4Be-8" vertex="1">
          <mxGeometry x="11" y="90" width="65" height="52" as="geometry" />
        </mxCell>
        <mxCell id="fi5G1cxpYTyHCKTgN4Be-67" value="&lt;div&gt;CPCEA DSN&lt;/div&gt;" style="rounded=0;whiteSpace=wrap;html=1;fontSize=10;verticalAlign=top;" parent="fi5G1cxpYTyHCKTgN4Be-8" vertex="1">
          <mxGeometry x="84" y="90" width="62" height="52" as="geometry" />
        </mxCell>
        <mxCell id="fi5G1cxpYTyHCKTgN4Be-68" value="AGRI" style="rounded=0;whiteSpace=wrap;html=1;fontSize=10;verticalAlign=top;" parent="fi5G1cxpYTyHCKTgN4Be-8" vertex="1">
          <mxGeometry x="10.5" y="150" width="65" height="52" as="geometry" />
        </mxCell>
        <mxCell id="fi5G1cxpYTyHCKTgN4Be-69" value="&lt;div&gt;AGRI DSN&lt;/div&gt;" style="rounded=0;whiteSpace=wrap;html=1;fontSize=10;verticalAlign=top;" parent="fi5G1cxpYTyHCKTgN4Be-8" vertex="1">
          <mxGeometry x="83.5" y="150" width="62.5" height="52" as="geometry" />
        </mxCell>
        <mxCell id="fi5G1cxpYTyHCKTgN4Be-82" value="JDQ" style="rounded=0;whiteSpace=wrap;html=1;fontSize=10;fillColor=#d5e8d4;strokeColor=#82b366;" parent="fi5G1cxpYTyHCKTgN4Be-8" vertex="1">
          <mxGeometry x="20" y="64" width="20" height="20" as="geometry" />
        </mxCell>
        <mxCell id="fi5G1cxpYTyHCKTgN4Be-83" value="JDR" style="rounded=0;whiteSpace=wrap;html=1;fontSize=10;fillColor=#f8cecc;strokeColor=#b85450;" parent="fi5G1cxpYTyHCKTgN4Be-8" vertex="1">
          <mxGeometry x="45" y="64" width="20" height="20" as="geometry" />
        </mxCell>
        <mxCell id="fi5G1cxpYTyHCKTgN4Be-85" value="JDQ" style="rounded=0;whiteSpace=wrap;html=1;fontSize=10;fillColor=#d5e8d4;strokeColor=#82b366;" parent="fi5G1cxpYTyHCKTgN4Be-8" vertex="1">
          <mxGeometry x="94.5" y="64" width="20" height="20" as="geometry" />
        </mxCell>
        <mxCell id="fi5G1cxpYTyHCKTgN4Be-86" value="JDR" style="rounded=0;whiteSpace=wrap;html=1;fontSize=10;fillColor=#f8cecc;strokeColor=#b85450;" parent="fi5G1cxpYTyHCKTgN4Be-8" vertex="1">
          <mxGeometry x="119.5" y="64" width="20" height="20" as="geometry" />
        </mxCell>
        <mxCell id="fi5G1cxpYTyHCKTgN4Be-87" value="JDQ" style="rounded=0;whiteSpace=wrap;html=1;fontSize=10;fillColor=#d5e8d4;strokeColor=#82b366;" parent="fi5G1cxpYTyHCKTgN4Be-8" vertex="1">
          <mxGeometry x="22" y="121" width="20" height="20" as="geometry" />
        </mxCell>
        <mxCell id="fi5G1cxpYTyHCKTgN4Be-88" value="JDR" style="rounded=0;whiteSpace=wrap;html=1;fontSize=10;fillColor=#f8cecc;strokeColor=#b85450;" parent="fi5G1cxpYTyHCKTgN4Be-8" vertex="1">
          <mxGeometry x="47" y="121" width="20" height="20" as="geometry" />
        </mxCell>
        <mxCell id="fi5G1cxpYTyHCKTgN4Be-89" value="JDQ" style="rounded=0;whiteSpace=wrap;html=1;fontSize=10;fillColor=#d5e8d4;strokeColor=#82b366;" parent="fi5G1cxpYTyHCKTgN4Be-8" vertex="1">
          <mxGeometry x="94" y="122" width="20" height="20" as="geometry" />
        </mxCell>
        <mxCell id="fi5G1cxpYTyHCKTgN4Be-90" value="JDR" style="rounded=0;whiteSpace=wrap;html=1;fontSize=10;fillColor=#f8cecc;strokeColor=#b85450;" parent="fi5G1cxpYTyHCKTgN4Be-8" vertex="1">
          <mxGeometry x="119" y="122" width="20" height="20" as="geometry" />
        </mxCell>
        <mxCell id="fi5G1cxpYTyHCKTgN4Be-91" value="JDQ" style="rounded=0;whiteSpace=wrap;html=1;fontSize=10;fillColor=#d5e8d4;strokeColor=#82b366;" parent="fi5G1cxpYTyHCKTgN4Be-8" vertex="1">
          <mxGeometry x="20.5" y="182" width="20" height="20" as="geometry" />
        </mxCell>
        <mxCell id="fi5G1cxpYTyHCKTgN4Be-92" value="JDR" style="rounded=0;whiteSpace=wrap;html=1;fontSize=10;fillColor=#f8cecc;strokeColor=#b85450;" parent="fi5G1cxpYTyHCKTgN4Be-8" vertex="1">
          <mxGeometry x="45.5" y="182" width="20" height="20" as="geometry" />
        </mxCell>
        <mxCell id="fi5G1cxpYTyHCKTgN4Be-93" value="JDQ" style="rounded=0;whiteSpace=wrap;html=1;fontSize=10;fillColor=#d5e8d4;strokeColor=#82b366;" parent="fi5G1cxpYTyHCKTgN4Be-8" vertex="1">
          <mxGeometry x="92.5" y="181" width="20" height="20" as="geometry" />
        </mxCell>
        <mxCell id="fi5G1cxpYTyHCKTgN4Be-94" value="JDR" style="rounded=0;whiteSpace=wrap;html=1;fontSize=10;fillColor=#f8cecc;strokeColor=#b85450;" parent="fi5G1cxpYTyHCKTgN4Be-8" vertex="1">
          <mxGeometry x="117.5" y="181" width="20" height="20" as="geometry" />
        </mxCell>
        <mxCell id="fi5G1cxpYTyHCKTgN4Be-70" value="API REST PICRIS" style="rounded=1;whiteSpace=wrap;html=1;fontSize=10;gradientColor=#b3b3b3;fillColor=#f5f5f5;strokeColor=#666666;" parent="fi5G1cxpYTyHCKTgN4Be-6" vertex="1">
          <mxGeometry x="-110" y="650" width="100" height="22" as="geometry" />
        </mxCell>
        <mxCell id="fi5G1cxpYTyHCKTgN4Be-62" value="API SOAP PICRIS" style="rounded=1;whiteSpace=wrap;html=1;fontSize=10;gradientColor=#b3b3b3;fillColor=#f5f5f5;strokeColor=#666666;" parent="fi5G1cxpYTyHCKTgN4Be-6" vertex="1">
          <mxGeometry x="-110" y="620" width="100" height="22" as="geometry" />
        </mxCell>
        <mxCell id="iJ6u3aECMBL3vNw7YUmj-37" value="" style="endArrow=classic;html=1;exitX=1;exitY=0.5;exitDx=0;exitDy=0;entryX=0;entryY=0.75;entryDx=0;entryDy=0;edgeStyle=orthogonalEdgeStyle;" edge="1" parent="fi5G1cxpYTyHCKTgN4Be-6" source="fi5G1cxpYTyHCKTgN4Be-62" target="fi5G1cxpYTyHCKTgN4Be-8">
          <mxGeometry width="50" height="50" relative="1" as="geometry">
            <mxPoint x="50" y="420" as="sourcePoint" />
            <mxPoint x="100" y="370" as="targetPoint" />
          </mxGeometry>
        </mxCell>
        <mxCell id="iJ6u3aECMBL3vNw7YUmj-38" value="" style="endArrow=classic;html=1;exitX=1;exitY=0.5;exitDx=0;exitDy=0;entryX=0;entryY=0.75;entryDx=0;entryDy=0;edgeStyle=orthogonalEdgeStyle;" edge="1" parent="fi5G1cxpYTyHCKTgN4Be-6" source="fi5G1cxpYTyHCKTgN4Be-70" target="fi5G1cxpYTyHCKTgN4Be-8">
          <mxGeometry width="50" height="50" relative="1" as="geometry">
            <mxPoint x="20" y="760" as="sourcePoint" />
            <mxPoint x="70" y="710" as="targetPoint" />
          </mxGeometry>
        </mxCell>
        <mxCell id="iJ6u3aECMBL3vNw7YUmj-53" value="&lt;div&gt;API OnCustomer&lt;/div&gt;&lt;div&gt;Qualif&lt;/div&gt;" style="rounded=1;whiteSpace=wrap;html=1;fontSize=10;fillColor=#ffe6cc;strokeColor=#d79b00;" vertex="1" parent="fi5G1cxpYTyHCKTgN4Be-6">
          <mxGeometry x="65" y="289" width="110" height="30" as="geometry" />
        </mxCell>
        <mxCell id="iJ6u3aECMBL3vNw7YUmj-54" value="&lt;div&gt;API OnCustomer&lt;/div&gt;&lt;div&gt;Recette&lt;/div&gt;" style="rounded=1;whiteSpace=wrap;html=1;fontSize=10;fillColor=#ffe6cc;strokeColor=#d79b00;" vertex="1" parent="fi5G1cxpYTyHCKTgN4Be-6">
          <mxGeometry x="65" y="410" width="110" height="30" as="geometry" />
        </mxCell>
        <mxCell id="fi5G1cxpYTyHCKTgN4Be-15" value="" style="endArrow=none;html=1;" parent="1" edge="1">
          <mxGeometry width="50" height="50" relative="1" as="geometry">
            <mxPoint x="10" y="400" as="sourcePoint" />
            <mxPoint x="670" y="400" as="targetPoint" />
            <Array as="points" />
          </mxGeometry>
        </mxCell>
        <mxCell id="fi5G1cxpYTyHCKTgN4Be-37" value="" style="endArrow=none;html=1;fontSize=10;" parent="1" edge="1">
          <mxGeometry width="50" height="50" relative="1" as="geometry">
            <mxPoint x="10" y="200" as="sourcePoint" />
            <mxPoint x="670" y="200" as="targetPoint" />
          </mxGeometry>
        </mxCell>
        <mxCell id="iJ6u3aECMBL3vNw7YUmj-28" value="" style="endArrow=classic;html=1;exitX=0;exitY=0.25;exitDx=0;exitDy=0;entryX=1;entryY=0.5;entryDx=0;entryDy=0;edgeStyle=orthogonalEdgeStyle;" edge="1" parent="1" source="fi5G1cxpYTyHCKTgN4Be-8" target="C6QLfUmNTLj8EmhHEYac-1">
          <mxGeometry width="50" height="50" relative="1" as="geometry">
            <mxPoint x="720" y="420" as="sourcePoint" />
            <mxPoint x="770" y="370" as="targetPoint" />
            <Array as="points">
              <mxPoint x="680" y="503" />
              <mxPoint x="680" y="380" />
            </Array>
          </mxGeometry>
        </mxCell>
        <mxCell id="iJ6u3aECMBL3vNw7YUmj-46" value="" style="endArrow=classic;html=1;entryX=0;entryY=0.5;entryDx=0;entryDy=0;exitX=0.25;exitY=1;exitDx=0;exitDy=0;edgeStyle=orthogonalEdgeStyle;" edge="1" parent="1" source="iJ6u3aECMBL3vNw7YUmj-32" target="fi5G1cxpYTyHCKTgN4Be-62">
          <mxGeometry width="50" height="50" relative="1" as="geometry">
            <mxPoint x="250" y="630" as="sourcePoint" />
            <mxPoint x="300" y="580" as="targetPoint" />
          </mxGeometry>
        </mxCell>
        <mxCell id="iJ6u3aECMBL3vNw7YUmj-47" value="" style="endArrow=classic;html=1;entryX=0;entryY=0.25;entryDx=0;entryDy=0;exitX=1;exitY=0.75;exitDx=0;exitDy=0;edgeStyle=orthogonalEdgeStyle;" edge="1" parent="1" source="fi5G1cxpYTyHCKTgN4Be-44" target="fi5G1cxpYTyHCKTgN4Be-70">
          <mxGeometry width="50" height="50" relative="1" as="geometry">
            <mxPoint x="270" y="640" as="sourcePoint" />
            <mxPoint x="320" y="590" as="targetPoint" />
            <Array as="points">
              <mxPoint x="360" y="535" />
              <mxPoint x="360" y="655" />
              <mxPoint x="560" y="655" />
            </Array>
          </mxGeometry>
        </mxCell>
        <mxCell id="iJ6u3aECMBL3vNw7YUmj-48" value="" style="endArrow=classic;html=1;exitX=1;exitY=0.75;exitDx=0;exitDy=0;entryX=0;entryY=0.75;entryDx=0;entryDy=0;edgeStyle=orthogonalEdgeStyle;fillColor=#f8cecc;strokeWidth=1;" edge="1" parent="1" source="fi5G1cxpYTyHCKTgN4Be-43" target="fi5G1cxpYTyHCKTgN4Be-70">
          <mxGeometry width="50" height="50" relative="1" as="geometry">
            <mxPoint x="290" y="400" as="sourcePoint" />
            <mxPoint x="340" y="350" as="targetPoint" />
            <Array as="points">
              <mxPoint x="350" y="310" />
              <mxPoint x="350" y="667" />
            </Array>
          </mxGeometry>
        </mxCell>
        <mxCell id="iJ6u3aECMBL3vNw7YUmj-56" value="" style="endArrow=classic;html=1;exitX=1;exitY=0.5;exitDx=0;exitDy=0;entryX=0;entryY=0.5;entryDx=0;entryDy=0;edgeStyle=orthogonalEdgeStyle;" edge="1" parent="1" source="fi5G1cxpYTyHCKTgN4Be-44" target="iJ6u3aECMBL3vNw7YUmj-54">
          <mxGeometry width="50" height="50" relative="1" as="geometry">
            <mxPoint x="511" y="510" as="sourcePoint" />
            <mxPoint x="640" y="480" as="targetPoint" />
            <Array as="points">
              <mxPoint x="660" y="530" />
              <mxPoint x="660" y="425" />
            </Array>
          </mxGeometry>
        </mxCell>
        <mxCell id="iJ6u3aECMBL3vNw7YUmj-66" value="..." style="rounded=1;whiteSpace=wrap;html=1;fontSize=10;fillColor=#ffe6cc;strokeColor=#d79b00;" vertex="1" parent="1">
          <mxGeometry x="605" y="250" width="50" height="30" as="geometry" />
        </mxCell>
        <mxCell id="iJ6u3aECMBL3vNw7YUmj-67" value="" style="endArrow=classic;html=1;strokeColor=#000000;strokeWidth=1;entryX=0;entryY=0.5;entryDx=0;entryDy=0;edgeStyle=orthogonalEdgeStyle;" edge="1" parent="1" target="iJ6u3aECMBL3vNw7YUmj-65">
          <mxGeometry width="50" height="50" relative="1" as="geometry">
            <mxPoint x="530" y="225" as="sourcePoint" />
            <mxPoint x="575" y="225" as="targetPoint" />
            <Array as="points">
              <mxPoint x="558" y="225" />
              <mxPoint x="558" y="245" />
            </Array>
          </mxGeometry>
        </mxCell>
        <mxCell id="iJ6u3aECMBL3vNw7YUmj-69" value="" style="endArrow=classic;html=1;strokeColor=#000000;strokeWidth=1;entryX=0;entryY=0.5;entryDx=0;entryDy=0;edgeStyle=orthogonalEdgeStyle;" edge="1" parent="1" target="iJ6u3aECMBL3vNw7YUmj-66">
          <mxGeometry width="50" height="50" relative="1" as="geometry">
            <mxPoint x="530" y="225" as="sourcePoint" />
            <mxPoint x="590" y="245" as="targetPoint" />
            <Array as="points">
              <mxPoint x="550" y="225" />
              <mxPoint x="550" y="265" />
            </Array>
          </mxGeometry>
        </mxCell>
        <mxCell id="iJ6u3aECMBL3vNw7YUmj-74" value="" style="endArrow=classic;html=1;strokeColor=#000000;strokeWidth=1;exitX=1;exitY=0.25;exitDx=0;exitDy=0;entryX=0;entryY=0.5;entryDx=0;entryDy=0;edgeStyle=orthogonalEdgeStyle;" edge="1" parent="1" target="iJ6u3aECMBL3vNw7YUmj-71">
          <mxGeometry width="50" height="50" relative="1" as="geometry">
            <mxPoint x="530" y="427.5" as="sourcePoint" />
            <mxPoint x="557.5" y="420" as="targetPoint" />
          </mxGeometry>
        </mxCell>
        <mxCell id="iJ6u3aECMBL3vNw7YUmj-75" value="" style="endArrow=classic;html=1;strokeColor=#000000;strokeWidth=1;exitX=1;exitY=0.25;exitDx=0;exitDy=0;entryX=0;entryY=0.5;entryDx=0;entryDy=0;edgeStyle=orthogonalEdgeStyle;" edge="1" parent="1" target="iJ6u3aECMBL3vNw7YUmj-72">
          <mxGeometry width="50" height="50" relative="1" as="geometry">
            <mxPoint x="530" y="427.5" as="sourcePoint" />
            <mxPoint x="582.5" y="445" as="targetPoint" />
            <Array as="points">
              <mxPoint x="550" y="428" />
              <mxPoint x="550" y="465" />
            </Array>
          </mxGeometry>
        </mxCell>
      </root>
    </mxGraphModel>
  </diagram>
</mxfile>
